# File created by Blade
# Date/Time:  Tue Jan 27 18:12:51 2015
#---------------------------------------------------------
:version 1.10
:name HOM
:units
  mass 1.0
  length 1.000000
  angle deg
:documentation
     Acclaim Skeleton File
:root
   axis xyz
   order TX TY TZ RX RY RZ
   position 0.000000 0.000000 0.000000
   orientation 0 0 0
:bonedata
   begin
      id 1
      name Spine_dum
      direction 0.000000 1.000000 0.000000
      length 5.195262
      axis 0.0 0.0 0.0 xyz
   end
   begin
      id 2
      name LeftUpLeg_dum
      direction 1.000000 0.000000 0.000000
      length 3.351363
      axis 0.0 0.0 0.0 xyz
   end
   begin
      id 3
      name RightUpLeg_dum
      direction -1.000000 0.000000 0.000000
      length 3.351363
      axis 0.0 0.0 0.0 xyz
   end
   begin
      id 4
      name Spine
      direction 0.000000 1.000000 0.000000
      length 0.000000
      axis 0.0 0.0 0.0 xyz
      dof rx ry rz
   end
   begin
      id 5
      name Spine_dum1
      direction 0.000000 1.000000 0.000000
      length 15.653875
      axis 0.0 0.0 0.0 xyz
   end
   begin
      id 6
      name Spine_dum2
      direction 0.000000 1.000000 0.000000
      length 10.329768
      axis 0.0 0.0 0.0 xyz
   end
   begin
      id 7
      name Spine_dum3
      direction 0.000000 1.000000 0.000000
      length 10.329768
      axis 0.0 0.0 0.0 xyz
   end
   begin
      id 8
      name Head
      direction 0.000000 1.000000 0.000000
      length 4.527550
      axis 0.0 0.0 0.0 xyz
      dof rx ry rz
   end
   begin
      id 9
      name LeftShoulder
      direction 1.000000 0.000000 0.000000
      length 6.996006
      axis 0.0 0.0 -90.0 xyz
      dof rx ry rz
   end
   begin
      id 10
      name LeftArm
      direction 1.000000 0.000000 0.000000
      length 10.209302
      axis 0.0 0.0 -90.0 xyz
      dof rx ry rz
   end
   begin
      id 11
      name LeftForeArm
      direction 1.000000 0.000000 0.000000
      length 8.563163
      axis 0.0 0.0 -90.0 xyz
      dof ry rz rx
   end
   begin
      id 12
      name LeftHand
      direction 0.000000 0.000000 0.000000
      length 0.000000
      axis 0.0 0.0 -90.0 xyz
      dof rx ry rz
   end
   begin
      id 13
      name LeftHand_dum1
      direction 0.000000 0.000000 0.000000
      length 0.000000
      axis 0.0 0.0 -90.0 xyz
   end
   begin
      id 14
      name LeftHand_dum2
      direction 1.000000 0.000000 0.000000
      length 3.937000
      axis 0.0 0.0 -90.0 xyz
   end
   begin
      id 15
      name LeftHandThumb1
      direction 0.000000 0.000000 1.000000
      length 3.937000
      axis 0.0 0.0 -90.0 xyz
      dof rx rz ry
   end
   begin
      id 16
      name RightShoulder
      direction -1.000000 0.000000 0.000000
      length 6.996006
      axis 0.0 0.0 90.0 xyz
      dof rx ry rz
   end
   begin
      id 17
      name RightArm
      direction -1.000000 0.000000 0.000000
      length 10.209302
      axis 0.0 0.0 90.0 xyz
      dof rx ry rz
   end
   begin
      id 18
      name RightForeArm
      direction -1.000000 0.000000 0.000000
      length 8.563163
      axis 0.0 0.0 90.0 xyz
      dof ry rz rx
   end
   begin
      id 19
      name RightHand
      direction 0.000000 0.000000 0.000000
      length 0.000000
      axis 0.0 0.0 90.0 xyz
      dof rx ry rz
   end
   begin
      id 20
      name RightHand_dum1
      direction 0.000000 0.000000 0.000000
      length 0.000000
      axis 0.0 0.0 90.0 xyz
   end
   begin
      id 21
      name RightHand_dum2
      direction -1.000000 0.000000 0.000000
      length 3.937000
      axis 0.0 0.0 90.0 xyz
   end
   begin
      id 22
      name RightHandThumb1
      direction 0.000000 0.000000 1.000000
      length 3.937000
      axis 0.0 0.0 90.0 xyz
      dof rx rz ry
   end
   begin
      id 23
      name LeftUpLeg
      direction 0.000000 -1.000000 0.000000
      length 16.346831
      axis 0.0 0.0 0.0 xyz
      dof rx ry rz
   end
   begin
      id 24
      name LeftLeg
      direction 0.000000 -1.000000 0.000000
      length 13.959795
      axis 0.0 0.0 0.0 xyz
      dof rx ry rz
   end
   begin
      id 25
      name LeftFoot
      direction 0.000000 -0.258819 0.965926
      length 5.165550
      axis 15.0 0.0 0.0 xyz
      dof rx ry rz
   end
   begin
      id 26
      name LeftToeBase
      direction 0.000000 0.000000 1.000000
      length 2.952750
      axis 0.0 0.0 0.0 xyz
      dof rx ry rz
   end
   begin
      id 27
      name RightUpLeg
      direction 0.000000 -1.000000 0.000000
      length 16.346831
      axis 0.0 0.0 0.0 xyz
      dof rx ry rz
   end
   begin
      id 28
      name RightLeg
      direction 0.000000 -1.000000 0.000000
      length 13.959795
      axis 0.0 0.0 0.0 xyz
      dof rx ry rz
   end
   begin
      id 29
      name RightFoot
      direction 0.000000 -0.258819 0.965926
      length 5.165550
      axis 15.0 0.0 0.0 xyz
      dof rx ry rz
   end
   begin
      id 30
      name RightToeBase
      direction 0.000000 0.000000 1.000000
      length 2.952750
      axis 0.0 0.0 0.0 xyz
      dof rx ry rz
   end
:hierarchy
   begin
      root Spine_dum LeftUpLeg_dum RightUpLeg_dum
      Spine_dum Spine
      LeftUpLeg_dum LeftUpLeg
      RightUpLeg_dum RightUpLeg
      Spine Spine_dum1 Spine_dum2 Spine_dum3
      Spine_dum1 Head
      Spine_dum2 LeftShoulder
      Spine_dum3 RightShoulder
      LeftShoulder LeftArm
      LeftArm LeftForeArm
      LeftForeArm LeftHand
      LeftHand LeftHand_dum1 LeftHand_dum2
      LeftHand_dum1 LeftHandThumb1
      RightShoulder RightArm
      RightArm RightForeArm
      RightForeArm RightHand
      RightHand RightHand_dum1 RightHand_dum2
      RightHand_dum1 RightHandThumb1
      LeftUpLeg LeftLeg
      LeftLeg LeftFoot
      LeftFoot LeftToeBase
      RightUpLeg RightLeg
      RightLeg RightFoot
      RightFoot RightToeBase
   end

# File created by Blade
# Date/Time:  Tue Jan 27 18:12:42 2015
# Frame Rate: 120.000 fps
#------------------------------------------------------
:FULLY-SPECIFIED
:DEGREES
526
root -1.303994 31.802637 -6.674533 4.205843 16.619802 4.906542
Spine -7.376261 3.609746 -0.997792
Head 11.964252 -5.458069 -2.229620
LeftShoulder -8.555513 16.305298 3.924712
LeftArm 26.501574 42.318635 -67.979694
LeftForeArm -1.590285 -0.000000 13.913661
LeftHand -10.412612 -0.000000 -5.759916
LeftHandThumb1 -26.253704 0.000000 33.147579
RightShoulder 11.980820 35.877687 -14.742715
RightArm 34.266778 4.923719 112.575397
RightForeArm 21.197185 -0.000000 152.352130
RightHand -2.553162 -0.000000 10.258133
RightHandThumb1 -24.326973 -0.000000 -32.862282
LeftUpLeg -0.950750 -5.950318 -2.116350
LeftLeg 1.856685 -0.000000 -0.000000
LeftFoot -15.579675 12.723763 -23.596613
LeftToeBase 8.577990 -0.000000 -0.000000
RightUpLeg 5.002447 -9.938146 -5.048558
RightLeg -3.508430 -0.000000 0.000000
RightFoot -17.424784 -17.327782 10.738925
RightToeBase 5.451892 -0.000000 -0.000000
527
root -1.302621 31.803128 -6.675323 4.215599 16.611154 4.908546
Spine -7.376812 3.638948 -1.004576
Head 11.977455 -5.512945 -2.196432
LeftShoulder -8.512645 16.328287 3.938393
LeftArm 26.524626 42.315135 -67.970354
LeftForeArm -1.582736 0.000000 13.919048
LeftHand -10.417837 0.000000 -5.706025
LeftHandThumb1 -26.253704 0.000000 33.147579
RightShoulder 11.959856 35.834385 -14.741848
RightArm 34.285388 4.935721 112.537614
RightForeArm 21.240631 -0.000000 152.302954
RightHand -2.541911 -0.000000 10.247075
RightHandThumb1 -24.326973 -0.000000 -32.862282
LeftUpLeg -0.953609 -5.957549 -2.121037
LeftLeg 1.842269 -0.000000 -0.000000
LeftFoot -15.572551 12.749887 -23.592036
LeftToeBase 8.549227 -0.000000 -0.000000
RightUpLeg 4.993840 -9.945761 -5.053117
RightLeg -3.514529 -0.000000 0.000000
RightFoot -17.405968 -17.318130 10.723071
RightToeBase 5.428959 -0.000000 -0.000000
528
root -1.300868 31.803096 -6.676098 4.228172 16.606336 4.913871
Spine -7.364018 3.652138 -1.006013
Head 11.939126 -5.546335 -2.192353
LeftShoulder -8.505079 16.304653 3.945166
LeftArm 26.513905 42.336226 -67.973018
LeftForeArm -1.592491 -0.000000 13.922695
LeftHand -10.420086 -0.000000 -5.719345
LeftHandThumb1 -26.253704 0.000000 33.147579
RightShoulder 11.919767 35.823567 -14.771633
RightArm 34.290252 4.941960 112.530319
RightForeArm 21.276831 -0.000000 152.268784
RightHand -2.564707 -0.000000 10.221111
RightHandThumb1 -24.326973 -0.000000 -32.862282
LeftUpLeg -0.961541 -5.945659 -2.127545
LeftLeg 1.833401 -0.000000 -0.000000
LeftFoot -15.571891 12.732399 -23.598048
LeftToeBase 8.624032 -0.000000 -0.000000
RightUpLeg 4.990914 -9.922243 -5.059662
RightLeg -3.533416 -0.000000 0.000000
RightFoot -17.399558 -17.332871 10.728050
RightToeBase 5.439187 -0.000000 -0.000000
529
root -1.299241 31.803423 -6.675841 4.234302 16.599882 4.914611
Spine -7.354135 3.652362 -0.997573
Head 11.917143 -5.562048 -2.200565
LeftShoulder -8.494737 16.323397 3.937223
LeftArm 26.519290 42.319780 -67.968629
LeftForeArm -1.590045 -0.000000 13.940578
LeftHand -10.441469 -0.000000 -5.712050
LeftHandThumb1 -26.253704 0.000000 33.147579
RightShoulder 11.923330 35.825458 -14.772012
RightArm 34.287169 4.941558 112.510094
RightForeArm 21.324635 -0.000000 152.243088
RightHand -2.549047 -0.000000 10.257390
RightHandThumb1 -24.326973 -0.000000 -32.862282
LeftUpLeg -0.962356 -5.943887 -2.131197
LeftLeg 1.826262 -0.000000 -0.000000
LeftFoot -15.559377 12.745880 -23.583728
LeftToeBase 8.575173 -0.000000 -0.000000
RightUpLeg 4.990099 -9.925830 -5.063475
RightLeg -3.544510 -0.000000 0.000000
RightFoot -17.386967 -17.325050 10.723968
RightToeBase 5.402686 -0.000000 -0.000000
530
root -1.297851 31.803597 -6.677440 4.257997 16.586050 4.921192
Spine -7.357558 3.661793 -1.000860
Head 11.903841 -5.560141 -2.201861
LeftShoulder -8.485104 16.295091 3.948611
LeftArm 26.499626 42.346583 -67.986001
LeftForeArm -1.622923 -0.000000 13.929273
LeftHand -10.446312 0.000000 -5.704883
LeftHandThumb1 -26.253704 0.000000 33.147579
RightShoulder 11.916894 35.827545 -14.782244
RightArm 34.293078 4.971435 112.514560
RightForeArm 21.429450 -0.000000 152.222832
RightHand -2.533067 -0.000000 10.217804
RightHandThumb1 -24.326973 -0.000000 -32.862282
LeftUpLeg -0.983043 -5.932030 -2.140744
LeftLeg 1.821949 -0.000000 -0.000000
LeftFoot -15.553468 12.756501 -23.560404
LeftToeBase 8.577965 -0.000000 -0.000000
RightUpLeg 4.965110 -9.924712 -5.069756
RightLeg -3.549778 -0.000000 0.000000
RightFoot -17.385393 -17.324358 10.731836
RightToeBase 5.450686 -0.000000 -0.000000
531
root -1.296815 31.803922 -6.677380 4.259637 16.580345 4.920111
Spine -7.349535 3.629165 -0.981604
Head 11.914169 -5.534097 -2.225455
LeftShoulder -8.487533 16.316276 3.934898
LeftArm 26.497622 42.322177 -67.991933
LeftForeArm -1.575029 0.000000 13.922838
LeftHand -10.549081 0.000000 -6.165617
LeftHandThumb1 -26.253704 0.000000 33.147579
RightShoulder 11.976061 35.816406 -14.764596
RightArm 34.317636 4.998774 112.506171
RightForeArm 21.509731 -0.000000 152.215566
RightHand -2.499390 -0.000000 10.248939
RightHandThumb1 -24.326973 -0.000000 -32.862282
LeftUpLeg -0.984995 -5.918334 -2.140199
LeftLeg 1.824580 -0.000000 -0.000000
LeftFoot -15.560396 12.731506 -23.593543
LeftToeBase 8.592801 -0.000000 -0.000000
RightUpLeg 4.959698 -9.945490 -5.070884
RightLeg -3.543178 -0.000000 0.000000
RightFoot -17.379133 -17.295706 10.722226
RightToeBase 5.450264 -0.000000 -0.000000
